<svg width="24" height="24" viewBox="0 0 24 24" fill="none" xmlns="http://www.w3.org/2000/svg">
<path d="M7 17.9983C4.82497 17.9862 3.64706 17.8897 2.87868 17.1213C2 16.2426 2 14.8284 2 12L2 8C2 5.17157 2 3.75736 2.87868 2.87868C3.75736 2 5.17157 2 8 2L16 2C18.8284 2 20.2426 2 21.1213 2.87868C22 3.75736 22 5.17157 22 8V12C22 14.8284 22 16.2426 21.1213 17.1213C20.3915 17.8512 19.2921 17.9748 17.3197 17.9957L16.5 17.9983" stroke="#58FFE3" stroke-width="1.5"/>
<path d="M9 6L15 6" stroke="#58FFE3" stroke-width="1.5" stroke-linecap="round"/>
<path d="M7 9.5H17" stroke="#58FFE3" stroke-width="1.5" stroke-linecap="round"/>
<path d="M10.8905 13.9454C11.5297 13.4006 12.4699 13.4006 13.1092 13.9454C13.3831 14.1788 13.7237 14.3199 14.0824 14.3485C14.9197 14.4153 15.5845 15.0802 15.6513 15.9174C15.6799 16.2761 15.821 16.6167 16.0544 16.8907C16.5992 17.5299 16.5992 18.4701 16.0544 19.1093C15.821 19.3833 15.6799 19.7239 15.6513 20.0826C15.5845 20.9198 14.9197 21.5847 14.0824 21.6515C13.7237 21.6801 13.3831 21.8212 13.1092 22.0546C12.4699 22.5994 11.5297 22.5994 10.8905 22.0546C10.6165 21.8212 10.276 21.6801 9.91719 21.6515C9.07997 21.5847 8.41515 20.9198 8.34834 20.0826C8.31971 19.7239 8.17863 19.3833 7.94519 19.1093C7.40043 18.4701 7.40043 17.5299 7.94519 16.8907C8.17863 16.6167 8.31971 16.2761 8.34834 15.9174C8.41515 15.0802 9.07997 14.4153 9.91719 14.3485C10.276 14.3199 10.6165 14.1788 10.8905 13.9454Z" stroke="#58FFE3" stroke-width="1.5"/>
<path d="M10.5 18.2L11.3571 19L13.5 17" stroke="#58FFE3" stroke-width="1.5" stroke-linecap="round" stroke-linejoin="round"/>
</svg>
